<svg width="48" height="48" viewBox="0 0 48 48" fill="none" xmlns="http://www.w3.org/2000/svg">
<g clip-path="url(#clip0_1_51)">
<path d="M39.3636 0.772149C34.7478 -0.888691 29.3847 0.129389 25.6861 3.82795C21.9876 7.52647 20.9695 12.8896 22.6303 17.5054L0 40.1358L7.86416 47.9999L30.4945 25.3695C35.1104 27.0304 40.4735 26.0123 44.172 22.3137C47.8706 18.6152 48.8887 13.252 47.2278 8.63623L39.2697 16.5944L33.6014 14.3985L31.4055 8.73023L39.3636 0.772149ZM9.4472 38.5527C10.3497 39.4552 10.3497 40.9185 9.4472 41.8209C8.54472 42.7234 7.08148 42.7234 6.179 41.8209C5.27648 40.9184 5.27648 39.4552 6.179 38.5527C7.08148 37.6503 8.54472 37.6503 9.4472 38.5527Z" fill="white"/>
</g>
<defs>
<clipPath id="clip0_1_51">
<rect width="48" height="48" fill="white"/>
</clipPath>
</defs>
</svg>
